<?xml version="1.0" encoding="UTF-8" standalone="no"?>
<svg width="208px" height="238px" viewBox="0 0 208 238" version="1.1" xmlns="http://www.w3.org/2000/svg" xmlns:xlink="http://www.w3.org/1999/xlink" xmlns:sketch="http://www.bohemiancoding.com/sketch/ns">
    <!-- Generator: Sketch 3.5.2 (25235) - http://www.bohemiancoding.com/sketch -->
    <title>test</title>
    <desc>Created with Sketch.</desc>
    <defs></defs>
    <g id="layout" stroke="none" stroke-width="1" fill="none" fill-rule="evenodd" sketch:type="MSPage">
        <g id="main-wide" sketch:type="MSArtboardGroup" transform="translate(-870.000000, -3901.000000)">
            <g id="content" sketch:type="MSLayerGroup" transform="translate(172.000000, 1033.000000)">
                <g id="test" transform="translate(621.000000, 2854.000000)" sketch:type="MSShapeGroup">
                    <g transform="translate(78.000000, 15.000000)">
                        <g id="Page-1">
                            <path d="M0,90.106949 L86.823713,236 L206,178.893051 L119.176287,33 L0,90.106949 Z" id="Fill-1" fill="#FEFEFE"></path>
                            <path d="M206,178.893481 L86.8243584,236 L0,90.1065185 L119.175642,33 L206,178.893481 L206,178.893481 Z" id="Stroke-2" stroke="#B6A267"></path>
                            <path d="M126.793722,30 L204,180.285204 L82.2047459,231 L5,80.7147964 L126.793722,30 Z" id="Fill-4" fill="#FEFEFE"></path>
                            <path d="M126.793722,30 L204,180.285204 L82.2047459,231 L5,80.7147964 L126.793722,30 L126.793722,30 Z" id="Stroke-5" stroke="#B6A267"></path>
                            <path d="M135.417998,26 L203,180.663553 L78.5820019,225 L11,70.3349197 L135.417998,26 Z" id="Fill-7" fill="#FEFEFE"></path>
                            <path d="M135.417998,26 L203,180.663553 L78.5820019,225 L11,70.3349197 L135.417998,26 L135.417998,26 Z" id="Stroke-8" stroke="#B6A267"></path>
                            <path d="M143.048193,22 L201,181.033621 L73.9518072,219 L16,59.9663793 L143.048193,22 Z" id="Fill-9" fill="#FEFEFE"></path>
                            <path d="M143.048193,22 L201,181.033621 L73.9518072,219 L16,59.9663793 L143.048193,22 L143.048193,22 Z" id="Stroke-10" stroke="#B6A267"></path>
                            <path d="M150.685013,19 L199,183.23034 L69.3165205,215 L21,50.7711927 L150.685013,19 Z" id="Fill-11" fill="#FEFEFE"></path>
                            <path d="M150.685013,19 L199,183.23034 L69.3165205,215 L21,50.7711927 L150.685013,19 L150.685013,19 Z" id="Stroke-12" stroke="#B6A267"></path>
                            <path d="M157.554247,15 L196,183.60745 L64.4457525,209 L26,40.3925499 L157.554247,15 Z" id="Fill-13" fill="#FEFEFE"></path>
                            <path d="M157.554247,15 L196,183.60745 L64.4457525,209 L26,40.3925499 L157.554247,15 L157.554247,15 Z" id="Stroke-14" stroke="#B6A267"></path>
                            <path d="M165.157653,11 L194,183.973001 L59.8438726,203 L31,30.0269995 L165.157653,11 Z" id="Fill-15" fill="#FEFEFE"></path>
                            <path d="M165.157653,11 L194,183.973001 L59.8438726,203 L31,30.0269995 L165.157653,11 L165.157653,11 Z" id="Stroke-16" stroke="#B6A267"></path>
                            <path d="M173.765973,8 L193,185.327017 L56.2340267,198 L37,20.672983 L173.765973,8 Z" id="Fill-17" fill="#FEFEFE"></path>
                            <path d="M173.765973,8 L193,185.327017 L56.2340267,198 L37,20.672983 L173.765973,8 L173.765973,8 Z" id="Stroke-18" stroke="#B6A267"></path>
                            <path d="M181.37897,4 L191,185.670435 L51.6195034,192 L42,10.3295654 L181.37897,4 Z" id="Fill-19" fill="#FEFEFE"></path>
                            <path d="M181.37897,4 L191,185.670435 L51.6195034,192 L42,10.3295654 L181.37897,4 L181.37897,4 Z" id="Stroke-20" stroke="#B6A267"></path>
                            <path d="M189,186 L47,186 L47,0 L189,0 L189,186 Z" id="Fill-21" fill="#FEFEFE"></path>
                            <path d="M189,186 L47,186 L47,0 L189,0 L189,186 Z" id="Stroke-22" stroke="#B6A267"></path>
                        </g>
                        <path d="M129.576105,115.736 L129.576105,108.104 C136.200105,106.664 141.816105,103.208 145.704105,98.888 C150.312105,93.704 152.616105,86.936 152.616105,80.744 C152.616105,72.104 148.728105,65.048 143.544105,60.152 C138.360105,55.256 130.152105,50.792 118.056105,50.792 C105.960105,50.792 97.7521049,55.4 93.0001049,60.152 C88.6801049,64.472 84.7921049,71.528 84.3601049,80.6 L109.704105,80.6 C109.704105,77.72 110.712105,74.984 112.296105,73.4 C113.592105,71.96 115.752105,70.952 118.488105,70.952 C121.224105,70.952 123.816105,71.96 125.400105,73.688 C127.128105,75.416 127.848105,78.152 127.848105,80.456 C127.848105,83.192 126.696105,86.216 124.536105,88.376 C121.080105,91.832 115.464105,93.128 111.000105,93.128 C109.128105,93.128 107.688105,92.84 106.104105,92.408 L106.104105,115.736 L129.576105,115.736 Z M118.488105,151.16 C122.232105,151.16 125.976105,149.72 129.000105,146.696 C131.592105,144.104 133.320105,140.936 133.320105,136.184 C133.320105,131.432 131.592105,128.264 129.144105,125.816 C125.976105,122.648 122.088105,121.208 118.344105,121.208 C115.176105,121.208 111.432105,122.216 107.976105,125.672 C106.104105,127.544 103.512105,131 103.512105,136.184 C103.512105,141.368 106.104105,144.824 107.976105,146.696 C111.432105,150.152 115.320105,151.16 118.488105,151.16 L118.488105,151.16 Z" id="?" fill="#B6A267"></path>
                    </g>
                </g>
            </g>
        </g>
    </g>
</svg>