<?xml version="1.0" encoding="UTF-8" standalone="no"?>
<svg width="1190px" height="763px" viewBox="0 0 1190 763" version="1.1" xmlns="http://www.w3.org/2000/svg" xmlns:xlink="http://www.w3.org/1999/xlink" xmlns:sketch="http://www.bohemiancoding.com/sketch/ns">
    <!-- Generator: Sketch 3.5.2 (25235) - http://www.bohemiancoding.com/sketch -->
    <title>artwork</title>
    <desc>Created with Sketch.</desc>
    <defs>
        <path id="path-1" d="M78.0194175,0 L1362.98058,0 L1440,713 L724.551128,397.466019 L6.66645974e-07,713 L78.0194175,0 Z"></path>
    </defs>
    <g id="layout" stroke="none" stroke-width="1" fill="none" fill-rule="evenodd" sketch:type="MSPage">
        <g id="main-wide" sketch:type="MSArtboardGroup" transform="translate(-127.000000, -36.000000)">
            <g id="artwork" sketch:type="MSLayerGroup" transform="translate(0.000000, 36.000000)">
                <ellipse id="Oval-1" stroke="#B6A267" stroke-width="0.5" sketch:type="MSShapeGroup" cx="723.394406" cy="712" rx="160.5" ry="50"></ellipse>
                <g id="Group-2" transform="translate(867.000000, 650.000000)" stroke="#B6A267" stroke-width="0.5" sketch:type="MSShapeGroup">
                    <path d="M0.6640625,27.59375 L175.003906,0.70703125" id="Path-26"></path>
                    <path d="M23.6640625,47.59375 L198.003906,20.7070312" id="Path-26-Copy"></path>
                    <path d="M46.6640625,67.59375 L221.003906,40.7070312" id="Path-26-Copy-2"></path>
                </g>
                <g id="Group-2-Copy" transform="translate(468.000000, 684.000000) scale(-1, 1) translate(-468.000000, -684.000000) translate(357.000000, 650.000000)" stroke="#B6A267" stroke-width="0.5" sketch:type="MSShapeGroup">
                    <path d="M0.6640625,27.59375 L175.003906,0.70703125" id="Path-26"></path>
                    <path d="M23.6640625,47.59375 L198.003906,20.7070312" id="Path-26-Copy"></path>
                    <path d="M46.6640625,67.59375 L221.003906,40.7070312" id="Path-26-Copy-2"></path>
                </g>
                <mask id="mask-2" sketch:name="Mask" fill="white">
                    <use xlink:href="#path-1"></use>
                </mask>
                <use id="Mask" sketch:type="MSShapeGroup" xlink:href="#path-1"></use>
                <g id="Group-3" mask="url(#mask-2)" stroke="#B6A267" stroke-width="0.5" sketch:type="MSShapeGroup">
                    <g transform="translate(128.000000, -17.000000)">
                        <circle id="Oval-3" cx="591" cy="490" r="369"></circle>
                        <circle id="Oval-3-Copy" cx="593" cy="500" r="389"></circle>
                        <circle id="Oval-3-Copy-2" cx="593" cy="525" r="451"></circle>
                        <ellipse id="Oval-3-Copy-4" cx="594" cy="593" rx="594" ry="593"></ellipse>
                    </g>
                </g>
                <g id="Group-4" transform="translate(479.500000, 605.000000) rotate(7.000000) translate(-479.500000, -605.000000) translate(380.000000, 576.000000)" stroke="#B6A267" stroke-width="0.5" sketch:type="MSShapeGroup">
                    <path d="M83.421875,0.984375 C74.6943359,11.7089844 37.4404297,18.0273437 0.76953125,15.9726562" id="Path-32"></path>
                    <path d="M105.421875,10.984375 C96.6943359,21.7089844 46.4404297,27.0273437 9.76953125,24.9726562" id="Path-32-Copy"></path>
                    <path d="M129.421875,15.984375 C121.498047,31.1113281 64.4404297,35.0273437 27.7695313,32.9726562" id="Path-32-Copy-2"></path>
                    <path d="M152.421875,24.984375 C144.498047,40.1113281 82.4404297,44.0273437 45.7695312,41.9726562" id="Path-32-Copy-3"></path>
                    <path d="M175.421875,32.984375 C167.498047,48.1113281 105.44043,52.0273437 68.7695313,49.9726562" id="Path-32-Copy-4"></path>
                    <path d="M198.421875,39.984375 C190.498047,55.1113281 128.44043,59.0273437 91.7695312,56.9726562" id="Path-32-Copy-5"></path>
                </g>
                <g id="Group-4-Copy" transform="translate(959.500000, 605.000000) scale(-1, 1) rotate(7.000000) translate(-959.500000, -605.000000) translate(860.000000, 576.000000)" stroke="#B6A267" stroke-width="0.5" sketch:type="MSShapeGroup">
                    <path d="M83.421875,0.984375 C74.6943359,11.7089844 37.4404297,18.0273437 0.76953125,15.9726562" id="Path-32"></path>
                    <path d="M105.421875,10.984375 C96.6943359,21.7089844 46.4404297,27.0273437 9.76953125,24.9726562" id="Path-32-Copy"></path>
                    <path d="M129.421875,15.984375 C121.498047,31.1113281 64.4404297,35.0273437 27.7695313,32.9726562" id="Path-32-Copy-2"></path>
                    <path d="M152.421875,24.984375 C144.498047,40.1113281 82.4404297,44.0273437 45.7695312,41.9726562" id="Path-32-Copy-3"></path>
                    <path d="M175.421875,32.984375 C167.498047,48.1113281 105.44043,52.0273437 68.7695313,49.9726562" id="Path-32-Copy-4"></path>
                    <path d="M198.421875,39.984375 C190.498047,55.1113281 128.44043,59.0273437 91.7695312,56.9726562" id="Path-32-Copy-5"></path>
                </g>
                <path d="M772.25,423.5 L772.25,556.804169" id="Line" stroke="#B6A267" stroke-width="0.5" stroke-linecap="square" sketch:type="MSShapeGroup"></path>
                <path d="M625.25,143.5 L625.25,276.804169" id="Line-Copy" stroke="#B6A267" stroke-width="0.5" stroke-linecap="square" sketch:type="MSShapeGroup"></path>
                <path d="M855,225 L855,289.300003" id="Line-Copy-2" stroke="#B6A267" stroke-width="0.5" stroke-linecap="square" sketch:type="MSShapeGroup"></path>
                <path d="M910,459 L910,523.300003" id="Line-Copy-3" stroke="#B6A267" stroke-width="0.5" stroke-linecap="square" sketch:type="MSShapeGroup"></path>
                <path d="M496,277 L496,341.300003" id="Line-Copy-4" stroke="#B6A267" stroke-width="0.5" stroke-linecap="square" sketch:type="MSShapeGroup"></path>
                <path d="M244.572,91 C242.28403,103.429 240.428499,105.28403 228,107.572 C240.429501,109.859469 242.28403,111.715 244.572,124.143499 C246.85997,111.714499 248.715,109.859469 261.144,107.572 C248.715,105.28403 246.860471,103.429 244.572,91 L244.572,91 Z" id="Shape" stroke="#B6A267" stroke-width="0.5" sketch:type="MSShapeGroup"></path>
                <path d="M154.5,71 C153.602594,75.875 152.874803,76.6025943 148,77.5 C152.875197,78.3972091 153.602594,79.125 154.5,83.9998035 C155.397406,79.1248035 156.125,78.3972091 161,77.5 C156.125,76.6025943 155.397602,75.875 154.5,71 L154.5,71 Z" id="Shape-Copy" stroke="#B6A267" stroke-width="0.5" sketch:type="MSShapeGroup"></path>
                <path d="M1237,161 C1234.37681,175.25 1232.24943,177.376814 1218,180 C1232.25057,182.622611 1234.37681,184.75 1237,198.999425 C1239.62319,184.749425 1241.75,182.622611 1256,180 C1241.75,177.376814 1239.62376,175.25 1237,161 L1237,161 Z" id="Shape-Copy-2" stroke="#B6A267" stroke-width="0.5" sketch:type="MSShapeGroup"></path>
            </g>
        </g>
    </g>
</svg>