<?xml version="1.0" encoding="UTF-8" standalone="no"?>
<svg width="24px" height="24px" viewBox="0 0 24 24" version="1.1" xmlns="http://www.w3.org/2000/svg" xmlns:xlink="http://www.w3.org/1999/xlink" xmlns:sketch="http://www.bohemiancoding.com/sketch/ns">
    <!-- Generator: Sketch 3.5.2 (25235) - http://www.bohemiancoding.com/sketch -->
    <title>heart</title>
    <desc>Created with Sketch.</desc>
    <defs></defs>
    <g id="layout" stroke="none" stroke-width="1" fill="none" fill-rule="evenodd" sketch:type="MSPage">
        <g id="main-wide" sketch:type="MSArtboardGroup" transform="translate(-15.000000, -62.000000)" fill="#B6A267">
            <g id="share" sketch:type="MSLayerGroup" transform="translate(15.000000, 62.000000)">
                <path d="M23.96784,5.98692531 C23.64792,2.62391044 20.98944,0 17.75712,0 C15.16632,0 12.94512,1.6856093 12,4.08571184 C11.05488,1.6856093 8.83368,0 6.24312,0 C3.01056,0 0.35184,2.62391044 0.03216,5.98692531 C0.0108,6.21098957 0,6.43864297 0,6.66886002 C0,14.7715775 9.30912,18.5957956 12,24 L12,24 C14.69088,18.596052 24,14.7718339 24,6.66886002 C24,6.43864297 23.9892,6.21098957 23.96784,5.98692531 L23.96784,5.98692531 Z" id="heart" sketch:type="MSShapeGroup"></path>
            </g>
        </g>
    </g>
</svg>