<?xml version="1.0" encoding="UTF-8" standalone="no"?>
<svg width="129px" height="89px" viewBox="0 0 129 89" version="1.1" xmlns="http://www.w3.org/2000/svg" xmlns:xlink="http://www.w3.org/1999/xlink" xmlns:sketch="http://www.bohemiancoding.com/sketch/ns">
    <!-- Generator: Sketch 3.5.2 (25235) - http://www.bohemiancoding.com/sketch -->
    <title>,,</title>
    <desc>Created with Sketch.</desc>
    <defs></defs>
    <g id="layout" stroke="none" stroke-width="1" fill="none" fill-rule="evenodd" sketch:type="MSPage">
        <g id="master-page" sketch:type="MSArtboardGroup" transform="translate(-1033.000000, -2989.000000)" fill="#B6A267" opacity="0.301772388">
            <g id="content" sketch:type="MSLayerGroup" transform="translate(0.000000, 204.000000)">
                <g id="quote" transform="translate(308.000000, 2785.000000)" sketch:type="MSShapeGroup">
                    <path d="M737.808362,88.8216542 C762.062496,83.0987688 784.409,59.934709 784.409,31.3202821 C784.409,-9.55747048 725,-10.3750255 725,28.5950986 C725,42.2210162 734.810661,54.484342 748.436578,54.484342 C753.886945,54.484342 759.609831,52.5767135 764.242643,48.7614566 C764.515161,49.5790117 764.515161,50.1240484 764.515161,50.9416034 C764.515161,60.2072273 754.7045,77.3758834 737.808362,82.5537321 L737.808362,88.8216542 Z M807.399362,88.8216542 C831.653495,83.0987688 854,59.934709 854,31.3202821 C854,-9.55747048 794.591,-10.3750255 794.591,28.5950986 C794.591,42.2210162 804.40166,54.484342 818.027578,54.484342 C823.477945,54.484342 829.20083,52.5767135 833.833642,48.7614566 C834.10616,49.5790117 834.10616,50.1240484 834.10616,50.9416034 C834.10616,60.2072273 824.2955,77.3758834 807.399362,82.5537321 L807.399362,88.8216542 Z" id=",,"></path>
                </g>
            </g>
        </g>
    </g>
</svg>