<?xml version="1.0" encoding="UTF-8" standalone="no"?>
<svg width="33px" height="23px" viewBox="0 0 33 23" version="1.1" xmlns="http://www.w3.org/2000/svg" xmlns:xlink="http://www.w3.org/1999/xlink" xmlns:sketch="http://www.bohemiancoding.com/sketch/ns">
    <!-- Generator: Sketch 3.5.2 (25235) - http://www.bohemiancoding.com/sketch -->
    <title>,,</title>
    <desc>Created with Sketch.</desc>
    <defs></defs>
    <g id="layout" stroke="none" stroke-width="1" fill="none" fill-rule="evenodd" sketch:type="MSPage">
        <g id="quiz-start" sketch:type="MSArtboardGroup" transform="translate(-323.000000, -1643.000000)" fill="#B6A267">
            <g id="content" sketch:type="MSLayerGroup" transform="translate(0.000000, 115.000000)">
                <g id="bottom" transform="translate(172.000000, 1195.000000)" sketch:type="MSShapeGroup">
                    <g id="also">
                        <g id="item-copy-6" transform="translate(0.000000, 63.000000)">
                            <path d="M155.008618,292.739132 C160.978203,291.311848 166.47827,285.534749 166.47827,278.398332 C166.47827,268.20345 151.85614,267.999552 151.85614,277.718673 C151.85614,281.116967 154.270804,284.175431 157.624503,284.175431 C158.965983,284.175431 160.374537,283.69967 161.514795,282.748148 C161.581869,282.952045 161.581869,283.087977 161.581869,283.291875 C161.581869,285.602715 159.167205,289.884565 155.008618,291.175917 L155.008618,292.739132 Z M172.136807,292.739132 C178.106392,291.311848 183.606459,285.534749 183.606459,278.398332 C183.606459,268.20345 168.984329,267.999552 168.984329,277.718673 C168.984329,281.116967 171.398993,284.175431 174.752692,284.175431 C176.094172,284.175431 177.502726,283.69967 178.642984,282.748148 C178.710058,282.952045 178.710058,283.087977 178.710058,283.291875 C178.710058,285.602715 176.295394,289.884565 172.136807,291.175917 L172.136807,292.739132 Z" id=",,"></path>
                        </g>
                    </g>
                </g>
            </g>
        </g>
    </g>
</svg>