<svg xmlns="http://www.w3.org/2000/svg" xmlns:xlink="http://www.w3.org/1999/xlink" preserveAspectRatio="xMidYMid" width="21" height="11" viewBox="0 0 24 14">
  <defs>
    <style>

      .cls-2 {
        fill: #ffffff;
      }
    </style>
  </defs>
  <path d="M13.966,3.412 C13.966,4.067 13.961,4.720 13.969,5.375 C13.972,5.596 14.005,5.816 14.032,6.036 C14.043,6.123 14.070,6.208 14.099,6.291 C14.300,6.863 14.657,6.981 15.096,6.576 C15.395,6.301 15.666,5.984 15.905,5.653 C16.875,4.311 17.628,2.845 18.227,1.293 C18.271,1.180 18.322,1.067 18.384,0.963 C18.512,0.745 18.704,0.645 18.956,0.644 C20.314,0.636 21.673,0.617 23.031,0.615 C23.243,0.615 23.462,0.662 23.667,0.724 C23.873,0.784 24.000,0.959 23.963,1.180 C23.913,1.476 23.853,1.778 23.738,2.053 C23.431,2.787 22.994,3.447 22.534,4.087 C21.915,4.950 21.274,5.794 20.651,6.653 C20.481,6.886 20.330,7.137 20.188,7.389 C19.958,7.795 19.994,8.195 20.300,8.539 C20.617,8.898 20.954,9.241 21.298,9.572 C22.017,10.268 22.727,10.972 23.319,11.786 C23.500,12.032 23.653,12.301 23.810,12.566 C23.868,12.665 23.910,12.777 23.941,12.888 C24.043,13.253 23.942,13.557 23.607,13.712 C23.353,13.830 23.065,13.919 22.789,13.929 C21.700,13.969 20.610,13.978 19.519,13.988 C18.876,13.994 18.315,13.733 17.859,13.297 C17.347,12.808 16.890,12.260 16.404,11.741 C16.176,11.497 15.939,11.260 15.701,11.026 C15.635,10.961 15.556,10.910 15.478,10.863 C15.058,10.605 14.706,10.683 14.431,11.102 C14.167,11.502 14.091,11.965 14.036,12.431 C14.015,12.617 14.005,12.804 14.002,12.990 C13.991,13.576 13.730,13.909 13.156,13.927 C12.039,13.957 10.920,13.992 9.822,13.674 C8.035,13.156 6.573,12.136 5.364,10.711 C4.330,9.491 3.467,8.151 2.670,6.763 C1.717,5.104 0.865,3.391 0.106,1.630 C0.039,1.474 0.012,1.296 -0.011,1.124 C-0.036,0.932 0.063,0.789 0.240,0.734 C0.412,0.681 0.594,0.632 0.772,0.625 C1.252,0.607 1.731,0.615 2.211,0.611 C2.810,0.606 3.410,0.595 4.009,0.593 C4.538,0.593 4.869,0.819 5.069,1.318 C5.711,2.913 6.501,4.425 7.487,5.826 C7.649,6.058 7.840,6.271 8.030,6.479 C8.126,6.584 8.244,6.673 8.366,6.748 C8.697,6.945 8.997,6.863 9.138,6.501 C9.250,6.217 9.329,5.911 9.366,5.607 C9.496,4.535 9.466,3.461 9.347,2.389 C9.335,2.280 9.306,2.172 9.282,2.064 C9.161,1.509 8.812,1.186 8.288,1.043 C8.222,1.024 8.154,1.012 8.088,0.996 C7.935,0.958 7.907,0.898 7.996,0.760 C8.183,0.469 8.450,0.268 8.776,0.197 C9.210,0.103 9.652,0.015 10.093,0.001 C10.867,-0.024 11.645,-0.002 12.420,0.024 C12.691,0.035 12.962,0.103 13.229,0.160 C13.687,0.259 13.963,0.563 13.994,1.030 C14.032,1.613 14.013,2.197 14.018,2.781 C14.019,2.992 14.018,3.201 14.018,3.412 C14.000,3.412 13.983,3.412 13.966,3.412 Z" id="path-1" class="cls-2" fill-rule="evenodd"/>
</svg>
