<svg xmlns="http://www.w3.org/2000/svg" xmlns:xlink="http://www.w3.org/1999/xlink" preserveAspectRatio="xMidYMid" width="13" height="24" viewBox="0 0 8 16">
  <defs>
    <style>

      .cls-2 {
        fill: #ffffff;
      }
    </style>
  </defs>
  <path d="M7.146,8.007 C7.146,8.007 4.903,8.007 4.903,8.007 C4.903,11.591 4.903,16.002 4.903,16.002 C4.903,16.002 1.581,16.002 1.581,16.002 C1.581,16.002 1.581,11.634 1.581,8.007 C1.581,8.007 0.001,8.007 0.001,8.007 C0.001,8.007 0.001,5.184 0.001,5.184 C0.001,5.184 1.581,5.184 1.581,5.184 C1.581,5.184 1.581,3.355 1.581,3.355 C1.581,2.048 2.202,0.002 4.934,0.002 C4.934,0.002 7.395,0.011 7.395,0.011 C7.395,0.011 7.395,2.754 7.395,2.754 C7.395,2.754 5.899,2.754 5.609,2.754 C5.318,2.754 4.903,2.899 4.903,3.523 C4.903,3.523 4.903,5.184 4.903,5.184 C4.903,5.184 7.437,5.184 7.437,5.184 C7.437,5.184 7.146,8.007 7.146,8.007 Z" id="path-1" class="cls-2" fill-rule="evenodd"/>
</svg>
