<svg xmlns="http://www.w3.org/2000/svg" xmlns:xlink="http://www.w3.org/1999/xlink" preserveAspectRatio="xMidYMid" width="18" height="13" viewBox="0 0 19 14">
  <defs>
    <style>

      .cls-2 {
        fill: #ffffff;
      }
    </style>
  </defs>
  <path d="M16.285,3.496 C16.293,3.648 16.296,3.800 16.296,3.953 C16.296,8.633 12.552,14.029 5.706,14.029 C3.604,14.029 1.648,13.443 0.001,12.439 C0.293,12.473 0.589,12.487 0.889,12.487 C2.634,12.487 4.237,11.922 5.510,10.972 C3.883,10.945 2.508,9.920 2.035,8.513 C2.262,8.555 2.494,8.576 2.735,8.576 C3.074,8.576 3.403,8.535 3.714,8.452 C2.014,8.128 0.729,6.694 0.729,4.979 C0.729,4.965 0.729,4.951 0.729,4.935 C1.232,5.201 1.806,5.360 2.416,5.378 C1.417,4.743 0.760,3.659 0.760,2.430 C0.760,1.781 0.944,1.175 1.264,0.650 C3.099,2.793 5.843,4.203 8.935,4.349 C8.872,4.091 8.839,3.821 8.839,3.543 C8.839,1.588 10.505,0.003 12.561,0.003 C13.631,0.003 14.599,0.433 15.278,1.120 C16.125,0.961 16.922,0.666 17.641,0.261 C17.362,1.087 16.773,1.783 16.005,2.219 C16.758,2.136 17.475,1.946 18.142,1.663 C17.644,2.373 17.013,2.996 16.285,3.496 Z" id="path-1" class="cls-2" fill-rule="evenodd"/>
</svg>
