<?xml version="1.0" encoding="UTF-8" standalone="no"?>
<svg width="54px" height="54px" viewBox="0 0 54 54" version="1.1" xmlns="http://www.w3.org/2000/svg" xmlns:xlink="http://www.w3.org/1999/xlink" xmlns:sketch="http://www.bohemiancoding.com/sketch/ns">
    <!-- Generator: Sketch 3.5.2 (25235) - http://www.bohemiancoding.com/sketch -->
    <title>online</title>
    <desc>Created with Sketch.</desc>
    <defs></defs>
    <g id="layout" stroke="none" stroke-width="1" fill="none" fill-rule="evenodd" sketch:type="MSPage">
        <g id="main-wide" sketch:type="MSArtboardGroup" transform="translate(-694.000000, -4769.000000)" fill="#B6A267">
            <g id="content" sketch:type="MSLayerGroup" transform="translate(172.000000, 1033.000000)">
                <g id="live" transform="translate(1.000000, 3476.000000)" sketch:type="MSShapeGroup">
                    <g id="online" transform="translate(521.000000, 260.000000)">
                        <path d="M27,0.244444444 C41.7466667,0.244444444 53.7555556,12.2533333 53.7555556,27 C53.7555556,41.7466667 41.7466667,53.7555556 27,53.7555556 C12.2533333,53.7555556 0.244444444,41.7466667 0.244444444,27 C0.244444444,12.2533333 12.2533333,0.244444444 27,0.244444444 L27,0.244444444 Z M27,0 C12.12,0 0,12.06 0,27 C0,41.94 12.12,54 27,54 C41.88,54 54,41.94 54,27 C54,12.06 41.88,0 27,0 L27,0 L27,0 Z" id="Shape"></path>
                        <g id="Group" transform="translate(8.000000, 11.000000)">
                            <path d="M23.0016667,15.562 C23.0016667,18.042 20.9666667,20.088 18.5,20.088 C16.0333333,20.088 13.9983333,18.042 13.9983333,15.562 C13.9983333,13.082 16.0333333,11.036 18.5,11.036 C20.9666667,11.036 23.0016667,13.02 23.0016667,15.562 L23.0016667,15.562 Z" id="Shape"></path>
                            <g id="Shape">
                                <path d="M5.42666667,15.562 C5.42666667,11.16 7.585,7.316 10.915,4.96 L10.36,4.216 C6.845,6.758 4.56333333,10.912 4.56333333,15.624 C4.56333333,20.274 6.78333333,24.366 10.2366667,26.908 L10.7916667,26.164 C7.52333333,23.684 5.42666667,19.902 5.42666667,15.562 L5.42666667,15.562 Z"></path>
                                <path d="M32.4983333,15.562 C32.4983333,10.912 30.2166667,6.758 26.7016667,4.216 L26.1466667,4.96 C29.415,7.316 31.5733333,11.222 31.5733333,15.562 C31.5733333,19.84 29.4766667,23.622 26.3316667,26.04 L26.8866667,26.784 C30.2783333,24.242 32.4983333,20.15 32.4983333,15.562 L32.4983333,15.562 Z"></path>
                                <path d="M36.075,15.562 C36.075,21.328 33.3,26.474 28.9833333,29.698 L29.5383333,30.442 C34.04,27.032 37,21.638 37,15.562 C37,9.362 33.9783333,3.906 29.3533333,0.558 L28.7983333,1.24 C33.2383333,4.464 36.075,9.672 36.075,15.562 L36.075,15.562 Z"></path>
                                <path d="M0.925,15.562 C0.925,9.672 3.82333333,4.464 8.20166667,1.24 L7.64666667,0.496 C3.02166667,3.906 0,9.362 0,15.562 C0,21.7 2.96,27.094 7.52333333,30.504 L8.07833333,29.76 C3.7,26.536 0.925,21.39 0.925,15.562 L0.925,15.562 Z"></path>
                                <path d="M9.92833333,15.562 C9.92833333,12.648 11.3466667,10.106 13.5666667,8.556 L13.0116667,7.812 C10.6066667,9.548 9.00333333,12.338 9.00333333,15.5 C9.00333333,18.6 10.545,21.39 12.8266667,23.126 L13.3816667,22.382 C11.285,20.832 9.92833333,18.352 9.92833333,15.562 L9.92833333,15.562 Z"></path>
                                <path d="M27.9966667,15.562 C27.9966667,12.4 26.3933333,9.61 24.05,7.874 L23.495,8.618 C25.6533333,10.168 27.0716667,12.71 27.0716667,15.562 C27.0716667,18.352 25.715,20.832 23.68,22.382 L24.235,23.126 C26.455,21.328 27.9966667,18.662 27.9966667,15.562 L27.9966667,15.562 Z"></path>
                            </g>
                        </g>
                    </g>
                </g>
            </g>
        </g>
    </g>
</svg>