<?xml version="1.0" encoding="UTF-8" standalone="no"?>
<svg width="46px" height="81px" viewBox="0 0 46 81" version="1.1" xmlns="http://www.w3.org/2000/svg" xmlns:xlink="http://www.w3.org/1999/xlink" xmlns:sketch="http://www.bohemiancoding.com/sketch/ns">
    <!-- Generator: Sketch 3.5.2 (25235) - http://www.bohemiancoding.com/sketch -->
    <title>oscar</title>
    <desc>Created with Sketch.</desc>
    <defs></defs>
    <g id="layout" stroke="none" stroke-width="1" fill="none" fill-rule="evenodd" sketch:type="MSPage">
        <g id="main-wide" sketch:type="MSArtboardGroup" transform="translate(-697.000000, -672.000000)" fill="#B6A267">
            <g id="intro" sketch:type="MSLayerGroup" transform="translate(372.000000, 233.000000)">
                <g id="oscar" transform="translate(325.380000, 439.000000)" sketch:type="MSShapeGroup">
                    <path d="M35.1563855,66.7539085 C34.6113253,66.7539085 33.3395181,65.3086277 33.3395181,65.3086277 C33.3395181,65.3086277 32.6581928,64.3149971 30.9775904,64.3149971 C29.296988,64.3149971 24.8456627,65.4441228 26.0720482,58.3532137 C27.2984337,51.2623046 27.6618072,47.1522872 27.5255422,45.3456862 C27.3892771,43.5390851 27.5255422,41.8228141 27.979759,40.3775333 C28.4339759,38.9322525 29.3424096,32.7446439 28.7973494,30.6670527 C28.1614458,28.2281413 27.7072289,27.4151708 28.8881928,27.4151708 C30.2054217,27.4151708 31.2501205,25.5182397 31.7043373,21.7695426 C32.1585542,18.0208454 33.6120482,13.4140127 30.7959036,12.3752171 C27.979759,11.3364215 25.8903614,10.2072959 25.5724096,9.21366532 C25.3907229,8.671685 25.3453012,8.31036479 25.7540964,7.67805443 C26.0266265,7.22640417 26.2991566,6.54892878 26.4354217,5.96178344 C26.6171084,4.92298784 26.6625301,3.97452229 26.5262651,3.1163868 C26.39,2.39374638 25.2998795,0 22.5745783,0 C19.8492771,0 18.7591566,2.39374638 18.6228916,3.07122177 C18.4412048,3.88419224 18.5320482,4.87782281 18.7137349,5.91661841 C18.8045783,6.50376375 19.1225301,7.18123914 19.3950602,7.6328894 C19.7584337,8.26519977 19.7584337,8.62651998 19.576747,9.16850029 C19.2587952,10.1621309 17.2148193,11.3364215 14.353253,12.3300521 C11.4916867,13.3236827 12.9906024,17.9756804 13.4448193,21.7243775 C13.8990361,25.4730747 14.9437349,27.3700058 16.2609639,27.3700058 C17.4419277,27.3700058 17.0331325,28.1829763 16.3518072,30.6218877 C15.806747,32.6994789 16.7151807,38.8419224 17.1693976,40.3323683 C17.6236145,41.8228141 17.7144578,43.4939201 17.6236145,45.3005211 C17.5327711,47.1071222 17.8507229,51.1719745 19.0771084,58.3080486 C20.303494,65.4441228 15.8975904,64.2698321 14.1715663,64.2698321 C12.4455422,64.2698321 11.8096386,65.2634627 11.8096386,65.2634627 C11.8096386,65.2634627 10.5378313,66.7087435 9.99277108,66.7087435 L4.99638554,66.7087435 L0,78 C0,78 11.31,81 22.62,81 C33.93,81 45.24,78 45.24,78 L40.1527711,66.7539085 L35.1563855,66.7539085 Z" id="Shape"></path>
                </g>
            </g>
        </g>
    </g>
</svg>