<?xml version="1.0" encoding="UTF-8" standalone="no"?>
<svg width="25px" height="44px" viewBox="0 0 25 44" version="1.1" xmlns="http://www.w3.org/2000/svg" xmlns:xlink="http://www.w3.org/1999/xlink" xmlns:sketch="http://www.bohemiancoding.com/sketch/ns">
    <!-- Generator: Sketch 3.5.2 (25235) - http://www.bohemiancoding.com/sketch -->
    <title>Shape Copy 12</title>
    <desc>Created with Sketch.</desc>
    <defs></defs>
    <g id="layout" stroke="none" stroke-width="1" fill="none" fill-rule="evenodd" sketch:type="MSPage">
        <g id="quiz-result" sketch:type="MSArtboardGroup" transform="translate(-708.000000, -570.000000)" fill="#B6A267">
            <g id="oscars" sketch:type="MSLayerGroup" transform="translate(671.000000, 570.000000)">
                <path d="M56.4277108,36.8887647 C56.126506,36.8887647 55.4236948,36.0900904 55.4236948,36.0900904 C55.4236948,36.0900904 55.0471888,35.5410019 54.1184739,35.5410019 C53.189759,35.5410019 50.7299197,36.1649662 51.4076305,32.2464709 C52.0853414,28.3279756 52.2861446,26.0567458 52.2108434,25.0584031 C52.1355422,24.0600603 52.2108434,23.1116347 52.4618474,22.3129605 C52.7128514,21.5142863 53.2148594,18.0949624 52.9136546,16.9468682 C52.562249,15.5991055 52.311245,15.1498512 52.9638554,15.1498512 C53.6917671,15.1498512 54.2690763,14.1015914 54.5200803,12.0300301 C54.7710843,9.95846894 55.5742972,7.41269493 54.0180723,6.83864784 C52.4618474,6.26460076 51.3072289,5.64063654 51.1315261,5.09154803 C51.0311245,4.7920452 51.0060241,4.59237665 51.2319277,4.24295669 C51.3825301,3.993371 51.5331325,3.61899247 51.6084337,3.29453108 C51.7088353,2.720484 51.7339357,2.19635405 51.6586345,1.72214125 C51.5833333,1.32280415 50.9809237,0 49.4748996,0 C47.9688755,0 47.3664659,1.32280415 47.2911647,1.69718268 C47.1907631,2.14643691 47.2409639,2.69552543 47.3413655,3.26957251 C47.3915663,3.5940339 47.5672691,3.96841244 47.7178715,4.21799812 C47.9186747,4.56741809 47.9186747,4.76708664 47.8182731,5.06658946 C47.6425703,5.61567797 46.5130522,6.26460076 44.9317269,6.81368928 C43.3504016,7.36277779 44.1787149,9.93351037 44.4297189,12.0050716 C44.6807229,14.0766328 45.2580321,15.1248927 45.9859438,15.1248927 C46.6385542,15.1248927 46.4126506,15.5741469 46.0361446,16.9219096 C45.7349398,18.0700038 46.2369478,21.4643691 46.4879518,22.2880019 C46.7389558,23.1116347 46.7891566,24.0351017 46.7389558,25.0334445 C46.688755,26.0317872 46.8644578,28.2780584 47.5421687,32.2215123 C48.2198795,36.1649662 45.7851406,35.5160434 44.8313253,35.5160434 C43.87751,35.5160434 43.5261044,36.0651319 43.5261044,36.0651319 C43.5261044,36.0651319 42.8232932,36.8638061 42.5220884,36.8638061 L39.7610442,36.8638061 L37,43.1034483 L49.5,43.1034483 L62,43.1034483 L59.188755,36.8887647 L56.4277108,36.8887647 Z" id="Shape-Copy-12" sketch:type="MSShapeGroup"></path>
            </g>
        </g>
    </g>
</svg>