<?xml version="1.0" encoding="utf-8"?>
<!-- Generator: Adobe Illustrator 18.1.1, SVG Export Plug-In . SVG Version: 6.00 Build 0)  -->
<svg version="1.1" id="Layer_1" xmlns="http://www.w3.org/2000/svg" xmlns:xlink="http://www.w3.org/1999/xlink" x="0px" y="0px"
	 viewBox="0 0 227.1 30.7" enable-background="new 0 0 227.1 30.7" xml:space="preserve" width="291" height="38">
<path fill="#333333" d="M49.3,0.5H37.8v29.3h5.3V19.6h6.1c5.3,0,8.4-3,8.4-8.2V8.4C57.6,3.2,54.8,0.5,49.3,0.5z M43.2,5.4h5.7
	c3,0,3.4,1.5,3.4,2.7v3.2c0,2.4-0.9,3.5-3,3.5h-6V5.4z"/>
<path fill="#333333" d="M72.3,12.2h-6.1V5.4h13.1V0.5H60.9v29.3h11.5c5.4,0,8.3-2.7,8.3-7.8v-1.6C80.7,15.1,77.7,12.2,72.3,12.2z
	 M66.2,17h6c2.1,0,3,1.1,3,3.5v1.7c0,1.3-0.4,2.7-3.4,2.7h-5.7V17z"/>
<polygon fill="#333333" points="96.7,12 106.1,0.5 99.7,0.5 89,13.7 89,0.5 83.7,0.5 83.7,29.8 89,29.8 89,21 93.2,16.2 100.6,29.8 
	106.6,29.8 "/>
<g>
	<path fill="#333333" d="M114.8,10.5c0-6.5,3.5-10.5,10-10.5c3.1,0,5.6,0.7,8.6,2.5l-1.2,1.7l-1-0.6c-1.8-1-3.9-1.8-6.6-1.8
		c-4,0-7.6,2-7.6,8.7v9.6c0,6.7,3.4,8.6,7.4,8.6c3.1,0,5.5-1,7.4-2l1-0.6l0.9,1.8c-2.9,1.8-5.7,2.6-9.4,2.6c-6.4,0-9.6-3.9-9.6-10.4
		V10.5z"/>
	<path fill="#333333" d="M144.9,30.2h-2.2V2.5h-8.3v-2h18.8v2h-8.3V30.2z"/>
	<path fill="#333333" d="M159.6,0.5v23.7l15.6-20.9V0.5h2.2v29.7h-2.2V6.5l-15.6,20.9v2.8h-2.2V0.5H159.6z"/>
	<path fill="#333333" d="M190.3,2.5l-0.3,9.7c-0.3,10-1.1,18-8.4,18h-0.4V28h0.3c1.9,0,3.1-0.8,3.9-2c1.6-2.5,2.2-6.4,2.6-18.9
		l0.2-6.6h15.2v29.7h-2.2V2.5H190.3z"/>
	<path fill="#333333" d="M210.2,30.2V0.5h2.2v12.8h8c4.9,0,6.8,2.3,6.8,6.7v3.3c0,4.2-1.9,6.8-7.2,6.8H210.2z M212.4,28.2h7.6
		c4.7,0,5-2.8,5-4.9v-3.2c0-3.3-1.1-5-5-5h-7.5V28.2z"/>
</g>
<linearGradient id="SVGID_1_" gradientUnits="userSpaceOnUse" x1="-4.334584e-002" y1="0.4149" x2="13.5216" y2="13.9799">
	<stop  offset="0" style="stop-color:#007681"/>
	<stop  offset="0.1697" style="stop-color:#1E8D87"/>
	<stop  offset="0.411" style="stop-color:#42A88E"/>
	<stop  offset="0.6372" style="stop-color:#5CBC94"/>
	<stop  offset="0.8401" style="stop-color:#6BC897"/>
	<stop  offset="1" style="stop-color:#71CC98"/>
</linearGradient>
<polygon fill="url(#SVGID_1_)" points="27.1,0.5 0,0.5 0,27.6 "/>
<linearGradient id="SVGID_2_" gradientUnits="userSpaceOnUse" x1="15.9099" y1="16.3685" x2="29.3454" y2="29.804">
	<stop  offset="0" style="stop-color:#007681"/>
	<stop  offset="0.153" style="stop-color:#087C83"/>
	<stop  offset="0.395" style="stop-color:#1F8E87"/>
	<stop  offset="0.6959" style="stop-color:#44AA8F"/>
	<stop  offset="1" style="stop-color:#71CC98"/>
</linearGradient>
<polygon fill="url(#SVGID_2_)" points="2.3,29.8 29.4,29.8 29.4,2.7 "/>
</svg>
