<?xml version="1.0" encoding="UTF-8" standalone="no"?>
<svg width="70px" height="104px" viewBox="0 0 70 104" version="1.1" xmlns="http://www.w3.org/2000/svg" xmlns:xlink="http://www.w3.org/1999/xlink" xmlns:sketch="http://www.bohemiancoding.com/sketch/ns">
    <!-- Generator: Sketch 3.5.2 (25235) - http://www.bohemiancoding.com/sketch -->
    <title>5</title>
    <desc>Created with Sketch.</desc>
    <defs></defs>
    <g id="layout" stroke="none" stroke-width="1" fill="none" fill-rule="evenodd" sketch:type="MSPage">
        <g id="main-wide" sketch:type="MSArtboardGroup" transform="translate(-417.000000, -2264.000000)" fill="#B6A267">
            <g id="content" sketch:type="MSLayerGroup" transform="translate(172.000000, 1033.000000)">
                <g id="item-copy-2" transform="translate(79.000000, 924.000000)" sketch:type="MSShapeGroup">
                    <path d="M199.720179,346.130469 C190.073025,346.130469 181.330202,349.558546 174.874208,355.121767 C174.881431,355.114544 174.888654,355.107321 174.895877,355.101542 L174.895877,355.062537 L174.892988,355.065427 C172.460252,357.216462 170.46957,356.48693 170.46957,353.444566 L170.46957,353.428675 C170.46957,353.125306 170.465236,352.829159 170.462347,352.540236 L170.459458,352.540236 L170.459458,342.341238 C170.459458,338.348316 173.725737,335.080592 177.718659,335.080592 L188.020224,335.080592 L188.020224,335.074814 L225.17289,335.074814 L225.17289,315.771839 L225.17289,314.785165 L225.17289,307.024681 L224.398575,307.024681 L224.398575,307.556301 C224.398575,311.333975 221.47467,314.457237 217.779339,314.785165 L169.448226,314.785165 L169.448226,321.027356 L169.448226,335.074814 L169.448226,354.009411 L169.446781,354.009411 L169.446781,365.586574 L169.448226,365.586574 L169.448226,367.213213 L170.459458,367.213213 L170.459458,366.093634 C170.460902,363.184175 172.165551,359.194143 174.29925,356.966543 L174.264579,356.966543 C178.727002,352.755484 184.514138,350.210068 190.844451,350.210068 C204.962695,350.210068 216.408397,362.869249 216.408397,378.484116 C216.408397,394.097539 204.962695,406.75672 190.844451,406.75672 C182.113185,406.75672 174.41193,401.912918 169.799268,394.528035 C171.12976,395.417919 172.750621,395.946649 174.502941,395.946649 C179.021704,395.946649 182.682364,392.475234 182.682364,388.194833 C182.682364,383.914432 179.021704,380.443017 174.502941,380.443017 C169.987068,380.443017 166.324963,383.914432 166.324963,388.194833 C166.324963,389.747797 166.811799,391.190969 167.642454,392.403003 C173.402143,403.299751 185.398244,410.836319 199.720179,410.836319 C219.589444,410.836319 235.694037,396.351142 235.694037,378.484116 C235.694037,360.615646 219.589444,346.130469 199.720179,346.130469" id="5"></path>
                </g>
            </g>
        </g>
    </g>
</svg>