<?xml version="1.0" encoding="UTF-8" standalone="no"?>
<svg width="119px" height="78px" viewBox="0 0 119 78" version="1.1" xmlns="http://www.w3.org/2000/svg" xmlns:xlink="http://www.w3.org/1999/xlink" xmlns:sketch="http://www.bohemiancoding.com/sketch/ns">
    <!-- Generator: Sketch 3.5.2 (25235) - http://www.bohemiancoding.com/sketch -->
    <title>8</title>
    <desc>Created with Sketch.</desc>
    <defs></defs>
    <g id="layout" stroke="none" stroke-width="1" fill="none" fill-rule="evenodd" sketch:type="MSPage">
        <g id="main-wide" sketch:type="MSArtboardGroup" transform="translate(-661.000000, -283.000000)" fill="#000000">
            <g id="intro" sketch:type="MSLayerGroup" transform="translate(372.000000, 233.000000)">
                <g id="8" transform="translate(289.000000, 50.000000)" sketch:type="MSShapeGroup">
                    <path d="M10.4580585,65.5762293 C10.4193039,65.5069409 10.3864213,65.4329549 10.3476667,65.3624921 C8.71880104,62.3537294 7.78869173,58.9233641 7.79221487,55.2745641 C7.79456363,51.0972929 8.9971292,47.186606 11.0992702,43.8959921 C11.1391991,43.8290524 11.3141818,43.58713 11.4187017,43.454425 C11.7393075,43.0504381 12.0704828,42.6534975 12.4239713,42.2718239 C13.0781012,41.5636725 13.7932989,40.8942756 14.5519487,40.2530639 C17.1297137,42.1308983 20.5060575,44.3128971 24.9146817,46.7309464 C30.6914591,49.8994249 34.522288,52.3480081 36.9990564,54.5382276 C38.3672096,55.7478394 39.3243297,56.8787678 39.964367,58.0073474 C39.9855058,58.0449276 40.0007728,58.0813334 40.0207373,58.1189135 C41.0119143,59.725466 41.5709194,61.5328375 41.5709194,63.4447288 C41.5709194,63.7958686 41.5486062,64.1411364 41.5122004,64.4840555 C41.3571822,65.9285435 40.8862556,67.2990454 40.1510935,68.5532837 C38.9908056,70.5344635 37.1787366,72.2220482 34.9321468,73.4387064 C33.9691549,73.9601313 32.9251306,74.3934777 31.821213,74.7270017 C30.8781855,75.0123762 29.8928804,75.224939 28.8711694,75.3552953 C26.16892,75.607787 22.8512952,75.3259357 19.2647374,73.7146858 C19.01342,73.6019453 18.7621026,73.4856816 18.5096108,73.3600229 C18.4321016,73.3224427 18.3557669,73.280165 18.2794322,73.2414105 C18.2289338,73.2155741 18.1772611,73.1897377 18.1267627,73.162727 C17.9693958,73.0746484 17.8143775,72.9818724 17.6593593,72.8902707 C17.6229535,72.8691319 17.5865477,72.847993 17.5513163,72.8268542 C16.7186806,72.3277425 15.9283226,71.7746093 15.182591,71.1709777 C15.1626265,71.1545364 15.1438364,71.1380951 15.123872,71.1228281 C14.5848313,70.6824355 14.0692783,70.2162065 13.5795617,69.7217923 C12.373473,68.501611 11.3188793,67.1228884 10.4580585,65.5762293 M13.5302377,15.3197928 C13.3634757,14.5858051 13.2742228,13.437261 13.2730484,12.6433798 L13.2730484,11.8694631 C13.2730484,7.82137372 16.3781103,4.238339 20.825489,2.49790719 C22.3803687,1.88957813 24.1067079,1.49850944 25.9352183,1.37637387 C26.3415539,1.34936312 26.7525871,1.3329218 27.1694921,1.3329218 C27.6392443,1.3329218 28.1054733,1.3505375 28.5634817,1.38576892 C29.3914199,1.49850944 30.2111375,1.63826071 31.0120649,1.83555663 L30.9827054,1.85434671 C31.2986137,1.9330302 31.6098246,2.02698064 31.9186866,2.12680298 C32.0102883,2.15733687 32.1007156,2.1913939 32.1923173,2.22310217 C32.4119264,2.2994369 32.6303612,2.37929477 32.8464472,2.46619892 C32.9427464,2.50495348 33.0390455,2.54605679 33.1341704,2.58716011 C33.3526051,2.67993616 33.5686911,2.77858412 33.7824284,2.88310398 C33.8611119,2.92068415 33.9397953,2.95826433 34.0173045,2.99701888 C34.2885863,3.13442139 34.5575195,3.28004457 34.8205807,3.4338884 C34.8346732,3.44210907 34.8499402,3.44915535 34.8640328,3.45855039 C35.4559205,3.806167 36.0243206,4.19723569 36.5692331,4.62353579 C36.5938951,4.64350026 36.6173827,4.66346472 36.6420447,4.68225481 C36.8886646,4.87837634 37.130587,5.08154416 37.3666375,5.29293264 C37.3912995,5.31524587 37.4171358,5.3375591 37.4417978,5.35987232 C38.0888814,5.94471378 38.6948617,6.58475112 39.2526925,7.27528682 C39.7048289,7.83429191 40.1287803,8.42265651 40.513977,9.04390376 C40.828711,9.54888735 41.1199573,10.072661 41.3865417,10.6140504 C41.467574,10.7784637 41.5392112,10.9487488 41.6155459,11.1155109 C42.7124172,13.5265139 43.338362,16.2487278 43.3371876,19.138878 C43.3348389,21.2339727 43.0036636,23.2421633 42.4023808,25.105905 C40.6572515,30.0054202 37.8857136,31.7470264 36.7559596,32.2754976 C35.7976652,31.7599446 34.8358476,31.2361709 33.8799019,30.7065253 C27.1495276,26.9766931 20.7103997,23.0554368 18.0739156,21.4183504 C17.3692874,20.9803065 16.9382897,20.7066759 16.8455137,20.6432594 C15.2307406,19.3984161 14.0305238,17.5170586 13.5302377,15.3197928 M50.6030794,43.3628233 C50.6066025,43.3416845 50.6124744,43.3205456 50.617172,43.2994068 C50.5255703,43.1608299 50.4280967,43.0281249 50.3341463,42.8918968 C50.0464231,42.4773405 49.7493048,42.0710048 49.4322221,41.6787618 C46.3800073,37.9019543 42.0207071,35.1163239 37.1963523,32.5138968 C37.4805524,32.384715 37.7577062,32.2285224 38.0254649,32.0476678 C41.0624127,30.4434641 43.7752315,28.6842422 45.7716783,26.4282574 C46.0206469,26.1475805 46.2531742,25.8551597 46.4798297,25.5580415 C46.5538156,25.4605679 46.628976,25.3654431 46.7017876,25.2656208 C46.6970901,25.2515282 46.6935669,25.2362613 46.6900438,25.2209943 C48.1697631,22.8005962 49.030584,19.9386311 49.0329327,16.8676262 C49.0352815,14.1219248 48.3541409,11.541811 47.1562728,9.29404679 C45.3301112,5.86837905 42.3013841,3.22249992 38.6572816,1.95182029 C35.509942,0.741034057 31.2915675,0 26.6515903,0 C21.3339957,0 16.5695343,0.974735764 13.3388137,2.51199976 C9.62894588,4.16200428 6.55441789,7.23300912 4.65192158,11.1389985 C3.68775524,13.1201783 3.03010219,15.3139209 2.73650708,17.641543 C2.62376656,18.5340721 2.56035001,19.4442169 2.56152439,20.3719775 C2.56622192,25.2480051 4.18451816,29.6942094 6.84448986,33.0752507 L6.84683862,33.082297 C6.84683862,33.082297 8.38997451,35.7187811 14.2677486,40.046373 C10.4333965,41.8854527 7.01712378,43.9136078 4.46167195,46.4655365 C4.11992724,46.8049324 3.80167014,47.1584209 3.49280808,47.5177813 C3.39298575,47.6352194 3.20038735,47.9065012 3.20508488,47.9252913 C1.18162738,50.8494986 0.0037237986,54.308049 0.00020065728,58.0190912 C-0.0021481036,61.3378903 0.930309965,64.454696 2.5673963,67.1722124 C4.52273973,70.412328 7.4845272,73.0758228 11.0699107,74.8162546 C14.6823049,76.7516336 20.3663062,78 26.7619821,78 C30.9862285,78 34.8969154,77.4550875 38.1088459,76.5285013 C38.2298071,76.5003162 38.3519427,76.4791773 38.4717295,76.4486434 L38.4423699,76.4310277 C38.5480642,76.3981451 38.6537584,76.3664368 38.7582783,76.3335542 C44.1158018,74.8561836 48.6066326,70.8903008 51.1949671,65.5715318 C52.7216617,62.4371104 53.5895289,58.8388088 53.5871801,55.0103285 C53.5848313,50.7273631 52.48796,46.7368183 50.6030794,43.3628233" id="Fill-1"></path>
                    <path d="M75.4578622,65.5762293 C75.4191077,65.5069409 75.386225,65.4329549 75.3474705,65.3624921 C73.7186048,62.3537294 72.7884955,58.9233641 72.7920186,55.2745641 C72.7943674,51.0972929 73.996933,47.186606 76.099074,43.8959921 C76.1390029,43.8290524 76.3139856,43.58713 76.4185054,43.454425 C76.7391113,43.0504381 77.0702866,42.6534975 77.4237751,42.2718239 C78.077905,41.5636725 78.7931027,40.8942756 79.5517524,40.2530639 C82.1295175,42.1308983 85.5058613,44.3128971 89.9144854,46.7309464 C95.6912628,49.8994249 99.5220918,52.3480081 101.99886,54.5382276 C103.367013,55.7478394 104.324133,56.8787678 104.964171,58.0073474 C104.98531,58.0449276 105.000577,58.0813334 105.020541,58.1189135 C106.011718,59.725466 106.570723,61.5328375 106.570723,63.4447288 C106.570723,63.7958686 106.54841,64.1411364 106.512004,64.4840555 C106.356986,65.9285435 105.886059,67.2990454 105.150897,68.5532837 C103.990609,70.5344635 102.17854,72.2220482 99.9319506,73.4387064 C98.9689586,73.9601313 97.9249344,74.3934777 96.8210168,74.7270017 C95.8779893,75.0123762 94.8926841,75.224939 93.8709731,75.3552953 C91.1687237,75.607787 87.851099,75.3259357 84.2645411,73.7146858 C84.0132237,73.6019453 83.7619063,73.4856816 83.5094145,73.3600229 C83.4319054,73.3224427 83.3555707,73.280165 83.279236,73.2414105 C83.2287376,73.2155741 83.1770649,73.1897377 83.1265665,73.162727 C82.9691995,73.0746484 82.8141813,72.9818724 82.6591631,72.8902707 C82.6227573,72.8691319 82.5863515,72.847993 82.5511201,72.8268542 C81.7184844,72.3277425 80.9281263,71.7746093 80.1823947,71.1709777 C80.1624303,71.1545364 80.1436402,71.1380951 80.1236757,71.1228281 C79.5846351,70.6824355 79.0690821,70.2162065 78.5793654,69.7217923 C77.3732767,68.501611 76.3186831,67.1228884 75.4578622,65.5762293 M78.5300415,15.3197928 C78.3632794,14.5858051 78.2740265,13.437261 78.2728521,12.6433798 L78.2728521,11.8694631 C78.2728521,7.82137372 81.377914,4.238339 85.8252928,2.49790719 C87.3801725,1.88957813 89.1065117,1.49850944 90.935022,1.37637387 C91.3413577,1.34936312 91.7523908,1.3329218 92.1692959,1.3329218 C92.6390481,1.3329218 93.1052771,1.3505375 93.5632855,1.38576892 C94.3912237,1.49850944 95.2109412,1.63826071 96.0118687,1.83555663 L95.9825092,1.85434671 C96.2984175,1.9330302 96.6096283,2.02698064 96.9184904,2.12680298 C97.0100921,2.15733687 97.1005193,2.1913939 97.192121,2.22310217 C97.4117302,2.2994369 97.6301649,2.37929477 97.8462509,2.46619892 C97.9425501,2.50495348 98.0388493,2.54605679 98.1339741,2.58716011 C98.3524089,2.67993616 98.5684949,2.77858412 98.7822321,2.88310398 C98.8609156,2.92068415 98.9395991,2.95826433 99.0171082,2.99701888 C99.2883901,3.13442139 99.5573232,3.28004457 99.8203844,3.4338884 C99.834477,3.44210907 99.849744,3.44915535 99.8638365,3.45855039 C100.455724,3.806167 101.024124,4.19723569 101.569037,4.62353579 C101.593699,4.64350026 101.617187,4.66346472 101.641849,4.68225481 C101.888468,4.87837634 102.130391,5.08154416 102.366441,5.29293264 C102.391103,5.31524587 102.41694,5.3375591 102.441602,5.35987232 C103.088685,5.94471378 103.694666,6.58475112 104.252496,7.27528682 C104.704633,7.83429191 105.128584,8.42265651 105.513781,9.04390376 C105.828515,9.54888735 106.119761,10.072661 106.386345,10.6140504 C106.467378,10.7784637 106.539015,10.9487488 106.61535,11.1155109 C107.712221,13.5265139 108.338166,16.2487278 108.336991,19.138878 C108.334643,21.2339727 108.003467,23.2421633 107.402185,25.105905 C105.657055,30.0054202 102.885517,31.7470264 101.755763,32.2754976 C100.797469,31.7599446 99.8356514,31.2361709 98.8797057,30.7065253 C92.1493314,26.9766931 85.7102035,23.0554368 83.0737194,21.4183504 C82.3690911,20.9803065 81.9380935,20.7066759 81.8453174,20.6432594 C80.2305443,19.3984161 79.0303275,17.5170586 78.5300415,15.3197928 M115.602883,43.3628233 C115.606406,43.3416845 115.612278,43.3205456 115.616976,43.2994068 C115.525374,43.1608299 115.4279,43.0281249 115.33395,42.8918968 C115.046227,42.4773405 114.749109,42.0710048 114.432026,41.6787618 C111.379811,37.9019543 107.020511,35.1163239 102.196156,32.5138968 C102.480356,32.384715 102.75751,32.2285224 103.025269,32.0476678 C106.062216,30.4434641 108.775035,28.6842422 110.771482,26.4282574 C111.020451,26.1475805 111.252978,25.8551597 111.479633,25.5580415 C111.553619,25.4605679 111.62878,25.3654431 111.701591,25.2656208 C111.696894,25.2515282 111.693371,25.2362613 111.689848,25.2209943 C113.169567,22.8005962 114.030388,19.9386311 114.032737,16.8676262 C114.035085,14.1219248 113.353945,11.541811 112.156077,9.29404679 C110.329915,5.86837905 107.301188,3.22249992 103.657085,1.95182029 C100.509746,0.741034057 96.2913712,0 91.6513941,0 C86.3337995,0 81.569338,0.974735764 78.3386175,2.51199976 C74.6287496,4.16200428 71.5542217,7.23300912 69.6517253,11.1389985 C68.687559,13.1201783 68.029906,15.3139209 67.7363108,17.641543 C67.6235703,18.5340721 67.5601538,19.4442169 67.5613282,20.3719775 C67.5660257,25.2480051 69.1843219,29.6942094 71.8442936,33.0752507 L71.8466424,33.082297 C71.8466424,33.082297 73.3897783,35.7187811 79.2675524,40.046373 C75.4332002,41.8854527 72.0169275,43.9136078 69.4614757,46.4655365 C69.119731,46.8049324 68.8014739,47.1584209 68.4926119,47.5177813 C68.3927895,47.6352194 68.2001911,47.9065012 68.2048886,47.9252913 C66.1814311,50.8494986 65.0035276,54.308049 65.0000044,58.0190912 C64.9976557,61.3378903 65.9301137,64.454696 67.5672001,67.1722124 C69.5225435,70.412328 72.484331,73.0758228 76.0697144,74.8162546 C79.6821087,76.7516336 85.36611,78 91.7617859,78 C95.9860323,78 99.8967192,77.4550875 103.10865,76.5285013 C103.229611,76.5003162 103.351746,76.4791773 103.471533,76.4486434 L103.442174,76.4310277 C103.547868,76.3981451 103.653562,76.3664368 103.758082,76.3335542 C109.115606,74.8561836 113.606436,70.8903008 116.194771,65.5715318 C117.721465,62.4371104 118.589333,58.8388088 118.586984,55.0103285 C118.584635,50.7273631 117.487764,46.7368183 115.602883,43.3628233" id="Fill-1-Copy"></path>
                </g>
            </g>
        </g>
    </g>
</svg>